<?xml version="1.0" encoding="UTF-8"?> <svg xmlns="http://www.w3.org/2000/svg" xmlns:xlink="http://www.w3.org/1999/xlink" version="1.1" id="Layer_1" x="0px" y="0px" width="287.532px" height="78.08px" viewBox="0 0 287.532 78.08" xml:space="preserve"> <g> <g id="_x38_Gt6aK_00000017476794663676851250000004220281328133620114_"> <g> <path fill="#EE2B34" d="M78,42.718c0,5.635,0.125,11.273-0.069,16.9c-0.068,1.967-0.896,3.914-1.423,5.857 c-0.516,1.897-2.036,3.191-2.979,4.822c-1.135,1.965-2.96,3.172-4.692,4.328c-2.08,1.387-4.433,2.334-7.002,2.859 c-3.297,0.674-6.574,0.557-9.865,0.572c-8.038,0.037-16.074,0.014-24.113,0.01c-0.417,0-0.836-0.018-1.248-0.078 c-1.273-0.184-1.876-0.877-1.885-2.15c-0.031-6.781-0.055-13.564-0.104-20.346c-0.006-0.716,0.186-0.965,0.938-0.962 c9.151,0.026,18.302,0.021,27.453,0.025c1.9,0.001,2.25-0.33,2.247-2.234c-0.006-9.183-0.018-18.366-0.023-27.55 c-0.003-0.381-0.094-0.826,0.068-1.127c0.173-0.318,0.596-0.711,0.91-0.711c6.366-0.004,12.733,0.042,19.1,0.08 c0.104,0.001,0.207,0.001,0.313,0.005c1.894,0.076,2.434,0.794,2.433,2.376c-0.006,4.348,0.013,8.696,0.021,13.044 c0.003,1.425,0,2.852,0,4.279C78.052,42.718,78.026,42.718,78,42.718z"></path> <path fill="#454344" d="M177.39,49.97c-0.454,0.1-0.942,0.291-1.435,0.299c-1.952,0.031-3.909-0.021-5.861,0.017 c-1.02,0.019-1.581-0.28-1.968-1.348c-0.551-1.519-1.441-2.91-2.158-4.371c-0.882-1.802-1.732-3.62-2.603-5.427 c-0.365-0.758-0.748-1.508-1.131-2.257c-0.256-0.496-0.553-0.972-0.783-1.478c-0.403-0.89-0.92-1.62-2.021-1.62 c-1.139-0.001-2.278,0.028-3.419,0.021c-0.819-0.005-1.169,0.375-1.161,1.193c0.016,1.954-0.005,3.908-0.008,5.864 c-0.003,2.646-0.039,5.293,0.018,7.939c0.023,1.149-0.51,1.503-1.536,1.492c-1.672-0.02-3.342-0.047-5.01,0 c-0.866,0.025-1.167-0.342-1.163-1.148c0.008-1.953-0.019-3.906-0.019-5.859c-0.003-10.913,0.01-21.825-0.021-32.738 c-0.003-1.121,0.362-1.486,1.484-1.475c4.888,0.053,9.776,0.071,14.664,0.018c2.733-0.03,5.305,0.778,7.488,2.152 c1.858,1.169,3.341,2.946,4.313,5.171c1.274,2.919,0.962,5.858,0.576,8.737c-0.194,1.463-1.522,2.794-2.399,4.144 c-0.928,1.424-2.475,2.031-3.848,2.887c-0.301,0.188-0.269,1.373-0.009,1.92c1.131,2.384,2.383,4.711,3.629,7.039 c0.444,0.828,1.036,1.574,1.487,2.396c0.454,0.83,0.836,1.701,1.22,2.567C176.265,47.337,176.789,48.58,177.39,49.97z M154.835,21.502c0.004,0,0.01,0,0.015,0c0,1.423-0.005,2.846,0.001,4.268c0.003,0.857,0.333,1.376,1.301,1.365 c2.275-0.026,4.557,0.056,6.831-0.029c2.14-0.079,4.76-1.959,5.142-3.728c0.888-4.115-1.347-6.836-5.233-7.319 c-2.164-0.269-4.388-0.024-6.582-0.056c-1.137-0.016-1.493,0.579-1.477,1.596C154.848,18.9,154.835,20.201,154.835,21.502z"></path> <path fill="#454344" d="M256.476,29.609c0-6.147,0.003-12.294,0-18.441c0-1.708,0.371-2.072,2.061-2.071 c7.573,0.007,15.147,0.008,22.723,0.005c1.878,0,2.101,0.198,2.118,2.096c0.012,1.139-0.073,2.282-0.006,3.417 c0.062,1.046-0.45,1.396-1.372,1.399c-1.956,0.007-3.911,0.007-5.864,0.006c-3.339,0-6.681,0.049-10.017-0.032 c-1.26-0.03-1.717,0.543-1.725,1.633c-0.016,2.274,0.015,4.548,0.041,6.822c0.012,1.011,0.452,1.581,1.562,1.574 c4.309-0.025,8.618-0.016,12.928-0.021c0.957-0.001,1.428,0.542,1.455,1.427c0.041,1.342,0.047,2.689-0.018,4.029 c-0.062,1.287-0.439,1.537-1.78,1.532c-4.276-0.014-8.553,0.014-12.827-0.017c-0.875-0.006-1.29,0.285-1.288,1.176 c0.009,2.561-0.031,5.121,0.006,7.681c0.019,1.313,1.022,1.404,2.004,1.395c2.604-0.025,5.205-0.086,7.807-0.111 c2.4-0.023,4.8-0.016,7.201-0.027c1.347-0.008,1.885,0.545,1.87,1.92c-0.015,1.215-0.009,2.43-0.009,3.645 c0.003,1.158-0.463,1.629-1.614,1.629c-7.897-0.008-15.797-0.025-23.695-0.002c-0.8,0.003-1.261-0.246-1.377-1.018 c-0.096-0.639-0.177-1.289-0.178-1.936c-0.015-5.902-0.009-11.806-0.009-17.709C256.475,29.609,256.476,29.609,256.476,29.609z"></path> <path fill="#454344" d="M216.247,49.902c-0.547,0.143-0.988,0.352-1.438,0.359c-2.075,0.038-4.152,0.006-6.23,0.029 c-0.929,0.01-1.35-0.408-1.779-1.263c-0.999-1.987-2.26-3.841-3.362-5.776c-1.029-1.799-1.973-3.644-2.98-5.454 c-0.984-1.766-1.997-3.514-3.008-5.264c-0.481-0.832-1.14-0.569-1.579-0.069c-1.319,1.502-2.632,3.024-3.787,4.651 c-0.462,0.651-0.698,1.593-0.711,2.408c-0.052,3.089,0.024,6.181,0.065,9.272c0.015,1.077-0.427,1.542-1.558,1.476 c-1.297-0.075-2.604,0.002-3.903,0.015c-1.014,0.011-1.563-0.343-1.561-1.499c0.029-12.704,0.032-25.407,0.012-38.11 c-0.003-1.112,0.486-1.57,1.517-1.581c1.343-0.014,2.688,0.008,4.03-0.012c0.953-0.013,1.475,0.418,1.466,1.379 c-0.041,4.798-0.105,9.597-0.126,14.396c-0.001,0.386,0.277,0.774,0.427,1.162c0.351-0.179,0.813-0.271,1.037-0.552 c1.967-2.469,3.859-4.998,5.838-7.458c2.159-2.681,4.345-5.345,6.616-7.928c0.466-0.529,1.36-0.903,2.079-0.945 c2.068-0.122,4.15-0.058,6.227-0.015c0.402,0.008,0.803,0.246,1.203,0.378c-0.146,0.404-0.198,0.885-0.456,1.201 c-1.887,2.324-3.807,4.623-5.732,6.916c-1.98,2.358-4.009,4.677-5.939,7.075c-0.28,0.351-0.356,1.186-0.135,1.57 c1.367,2.374,2.866,4.672,4.283,7.017c0.707,1.169,1.315,2.397,2.011,3.574c1.161,1.965,2.378,3.897,3.532,5.868 c0.807,1.374,1.552,2.783,2.319,4.182C215.142,47.845,215.647,48.792,216.247,49.902z"></path> <path fill="#454344" d="M222.041,29.713c0-6.351,0.02-12.701-0.019-19.052c-0.008-1.115,0.248-1.578,1.484-1.569 c7.777,0.047,15.556,0.012,23.333,0.016c1.597,0.001,1.69,0.121,1.691,1.77c0.003,1.139-0.007,2.279,0.015,3.419 c0.037,1.709,0.047,1.717-1.718,1.719c-4.926,0.004-9.854-0.001-14.781-0.002c-2.242-0.001-2.354,0.108-2.354,2.323 c0,1.832,0.003,3.664,0.008,5.496c0.006,1.878,0.434,2.299,2.281,2.279c3.826-0.04,7.651-0.073,11.477-0.107 c2.008-0.018,2.278,0.252,2.262,2.19c-0.009,1.018,0.015,2.035,0.003,3.053c-0.018,1.498-0.274,1.745-1.813,1.745 c-4.112,0-8.227-0.011-12.339-0.009c-1.805,0.002-1.862,0.054-1.877,1.831c-0.015,2.157-0.006,4.315,0.006,6.473 c0.009,1.4,0.502,1.881,1.901,1.875c4.029-0.014,8.059-0.033,12.088-0.045c1.264-0.004,2.524,0,3.786,0.012 c0.729,0.008,1.137,0.338,1.119,1.123c-0.033,1.545-0.077,3.092-0.047,4.637c0.021,0.965-0.307,1.397-1.326,1.395 c-7.774-0.027-15.553-0.021-23.33-0.026c-0.081-0.001-0.164-0.022-0.243-0.011c-1.627,0.245-1.612-0.193-1.615-1.604 c-0.003-6.31,0-12.619,0-18.929C222.037,29.713,222.038,29.713,222.041,29.713z"></path> <path fill="#454344" d="M95.688,29.591c0-6.19-0.006-12.38,0.004-18.57c0.002-1.713,0.219-1.919,1.899-1.92 c7.698-0.002,15.399-0.002,23.097,0.003c1.55,0,1.909,0.411,1.867,1.993c-0.029,1.058-0.037,2.117-0.014,3.174 c0.036,1.537-0.132,1.732-1.729,1.741c-2.239,0.012-4.48,0.007-6.721,0.008c-2.974,0.002-5.948,0.041-8.921-0.017 c-1.027-0.02-1.585,0.361-1.596,1.347c-0.026,2.644-0.007,5.288,0.028,7.932c0.013,0.852,0.505,1.141,1.368,1.134 c4.277-0.035,8.554,0.038,12.831-0.042c1.248-0.024,1.729,0.461,1.764,1.582c0.039,1.261,0.086,2.524,0.039,3.784 c-0.042,1.152-0.586,1.553-1.864,1.554c-4.031,0.001-8.063,0-12.099,0.01c-1.747,0.004-2.115,0.397-2.118,2.181 c-0.006,4.316-0.018,8.633-0.023,12.949c-0.003,1.605-0.223,1.836-1.809,1.838c-1.344,0.003-2.688-0.004-4.032-0.002 c-1.685,0.002-1.964-0.262-1.968-1.986c-0.013-4.275-0.01-8.551-0.013-12.828c-0.002-1.954-0.002-3.91-0.002-5.864 C95.683,29.591,95.686,29.591,95.688,29.591z"></path> <path fill="#EE2B34" d="M47.052,38.605c0,2.189-0.031,4.379,0.018,6.567c0.018,0.751-0.198,1.108-0.962,1.108 c-4.412,0-8.825,0.004-13.24,0.014c-0.725,0.002-0.93-0.356-0.925-1.049c0.021-4.414,0.029-8.827-0.008-13.24 c-0.008-0.889,0.38-1.179,1.172-1.177c4.241,0.006,8.48,0.015,12.722,0.011c0.896-0.001,1.291,0.314,1.256,1.302 c-0.072,2.152-0.021,4.308-0.021,6.463C47.06,38.605,47.056,38.605,47.052,38.605z"></path> <path fill="#454344" d="M129.378,29.609c-0.002-6.229-0.009-12.458,0.004-18.688c0.003-1.779,0.07-1.819,1.885-1.825 c1.506-0.004,3.015,0.045,4.52-0.024c1.086-0.05,1.435,0.411,1.429,1.434c-0.032,3.786-0.023,7.573-0.019,11.358 c0.007,8.875,0.019,17.75,0.036,26.625c0.003,1.664-0.131,1.813-1.785,1.801c-1.385-0.012-2.767-0.025-4.151-0.02 c-1.747,0.006-1.917-0.156-1.917-1.975C129.376,42.068,129.378,35.838,129.378,29.609z"></path> <path fill="#454344" d="M273.186,74.228c-0.171-2.822,0.621-5.143,2.863-6.445c1.081-0.627,2.362-1.577,3.93-1.125 c0.32,0.092,1.06-0.25,1.135-0.521c0.238-0.861,0.365-1.791,0.326-2.684c-0.036-0.818,0.144-1.213,0.998-1.301 c2.148-0.219,2.501,0.041,2.107,2.204c-0.446,2.458-1.103,4.878-1.654,7.317c-0.284,1.258-0.539,2.521-0.804,3.783 c-0.014,0.072,0.024,0.156,0.038,0.236c0.104,0.629,0.209,1.26,0.313,1.889c-0.701,0.075-1.411,0.236-2.104,0.178 c-0.244-0.021-0.563-0.549-0.642-0.891c-0.203-0.891-0.684-0.771-1.255-0.445c-0.448,0.256-0.978,0.461-1.296,0.836 c-0.74,0.871-1.599,0.733-2.427,0.348c-0.972-0.451-1.601-1.217-1.532-2.389C273.204,74.812,273.186,74.404,273.186,74.228z M280.603,70.109c0-0.324,0.112-0.711-0.025-0.961c-0.311-0.571-0.672-1.178-1.176-1.549c-0.169-0.124-0.908,0.344-1.258,0.676 c-2.023,1.934-2.304,4.422-2.09,7.025c0.055,0.687,1.294,1.021,1.822,0.518C279.511,74.265,280.511,72.399,280.603,70.109z"></path> <path fill="#454344" d="M215.133,77.7c-1.358,0-2.525,0.024-3.691-0.021c-0.215-0.008-0.588-0.286-0.598-0.457 c-0.021-0.402,0.076-0.836,0.222-1.221c0.152-0.393,0.535-0.719,0.617-1.115c0.403-1.986,0.549-4.049,1.158-5.965 c0.569-1.793,0.828-3.531,0.677-5.383c-0.018-0.227,0.525-0.709,0.816-0.716c1.953-0.046,3.912-0.065,5.862,0.04 c1.899,0.104,2.978,1.367,3.054,3.248c0.122,3.086-1.604,4.584-4.468,5.141c-0.397,0.078-0.808,0.104-1.213,0.121 c-2.012,0.086-2.472,0.486-2.778,2.494c-0.094,0.602-0.225,1.217-0.181,1.813C214.653,76.269,214.899,76.843,215.133,77.7z M220.149,66.664c0.015-1.633-0.622-2.516-1.856-2.57c-1.013-0.043-1.644,0.814-1.841,2.393c-0.083,0.672-0.194,1.365-0.45,1.983 c-0.434,1.049-0.01,1.761,1.138,1.733C218.718,70.167,220.135,68.501,220.149,66.664z"></path> <path fill="#454344" d="M92.699,77.591c0.764-1.223,1.408-2.192,1.992-3.199c0.849-1.467,1.654-2.958,2.478-4.439 c0.82-1.473,1.626-2.951,2.461-4.414c0.429-0.754,0.893-1.492,1.37-2.219c0.337-0.517,2.241-0.816,2.63-0.369 c0.242,0.278,0.365,0.73,0.393,1.116c0.221,3.243,0.395,6.487,0.618,9.729c0.056,0.84,0.197,1.678,0.362,2.504 c0.189,0.959-0.141,1.395-1.119,1.365c-0.565-0.018-1.134-0.023-1.699-0.059c-0.381-0.023-0.758-0.09-1.137-0.137 c0.068-0.498,0.13-0.998,0.209-1.494c0.117-0.713,0.503-1.516,0.286-2.102c-0.151-0.412-1.1-0.568-1.718-0.754 c-0.336-0.1-0.73,0.01-1.093-0.027c-1.753-0.182-2.516,1.01-2.419,2.697c0.026,0.443,0.105,0.893,0.053,1.326 c-0.029,0.223-0.295,0.592-0.458,0.594C94.961,77.726,94.013,77.652,92.699,77.591z M99.531,72.08 c1.257-0.011,1.89-0.729,1.977-1.892c0.064-0.845,0.155-1.692,0.129-2.536c-0.009-0.356-0.286-0.705-0.442-1.059 c-0.35,0.242-0.825,0.41-1.02,0.742c-0.523,0.896-0.954,1.85-1.36,2.805c-0.173,0.398-0.392,0.969-0.231,1.268 C98.785,71.787,99.357,71.966,99.531,72.08z"></path> <path fill="#454344" d="M258.299,77.625c-1.338,0-2.676,0.009-4.015-0.012c-0.213-0.002-0.593-0.111-0.607-0.213 c-0.048-0.338-0.091-0.791,0.089-1.027c0.941-1.24,1.231-2.657,1.48-4.154c0.345-2.071,0.964-4.096,1.347-6.162 c0.129-0.7,0.015-1.5-0.194-2.191c-0.21-0.697-0.136-1.027,0.615-1.037c1.058-0.014,2.118-0.029,3.176,0.008 c0.713,0.025,0.771,0.334,0.422,0.956c-0.511,0.905-1.062,1.845-1.293,2.839c-0.537,2.324-0.888,4.69-1.335,7.037 c-0.082,0.428-0.171,0.9-0.412,1.246c-0.47,0.678-0.198,0.922,0.453,1.108c1.604,0.46,2.998-0.073,3.899-1.501 c0.104-0.166,0.257-0.313,0.418-0.426c0.352-0.246,0.725-0.465,1.088-0.695c0.02,0.541,0.142,1.104,0.032,1.619 c-0.129,0.615-0.406,1.215-0.712,1.773c-0.172,0.316-0.505,0.722-0.808,0.76c-1.205,0.153-2.427,0.18-3.642,0.252 C258.299,77.744,258.299,77.683,258.299,77.625z"></path> <path fill="#454344" d="M157.723,73.433c-0.245-2.502,0.927-4.313,2.86-5.754c1.71-1.271,4.426-1.322,6.022,0.078 c1.194,1.049,1.374,2.514,1.061,4.029c-0.271,1.322-0.591,2.59-1.37,3.781c-1.215,1.863-4.677,2.767-6.627,1.789 C157.916,76.478,157.524,75.164,157.723,73.433z M165.063,70.234c-0.222-0.625-0.421-1.495-0.851-2.229 c-0.157-0.27-0.97-0.429-1.295-0.266c-0.493,0.246-0.937,0.76-1.203,1.264c-1.099,2.074-1.272,4.323-1.055,6.615 c0.02,0.205,0.217,0.427,0.386,0.578c0.692,0.613,1.735,0.266,2.472-0.659C164.706,74.042,164.583,72.222,165.063,70.234z"></path> <path fill="#454344" d="M127.387,73.236c-0.293-2.191,1.063-4.018,2.956-5.57c1.402-1.147,4.739-1.15,6.229-0.025 c0.539,0.406,0.663,2.195,0.133,2.84c-0.809,0.978-1.726,1.809-3.096,1.928c-0.727,0.063-1.442,0.236-2.167,0.336 c-1.028,0.141-1.325,0.76-1.244,1.722c0.082,1.021,0.418,1.748,1.601,1.601c0.838-0.102,1.779,0.217,2.406-0.789 c0.171-0.275,0.957-0.194,1.46-0.193c0.054,0,0.226,0.787,0.143,0.831c-1.303,0.694-2.577,1.63-3.979,1.909 C129.227,78.34,127.311,76.398,127.387,73.236z M130.521,70.757c1.189,0.851,2.36,0.754,3.223-0.105 c0.678-0.676,0.859-2.051,0.189-2.771c-0.239-0.258-1.188-0.301-1.385-0.074C131.792,68.692,131.205,69.724,130.521,70.757z"></path> <path fill="#454344" d="M186.198,73.24c-0.083-2.094,1.041-4.069,2.95-5.632c1.526-1.249,3.58-1.267,5.258-0.127 c0.847,0.575,0.82,2.953-0.155,3.702c-0.669,0.512-1.514,0.811-2.306,1.137c-0.739,0.303-1.595,0.393-2.249,0.813 c-0.377,0.244-0.66,0.973-0.614,1.446c0.049,0.489,0.499,1.271,0.862,1.325c0.672,0.102,1.42-0.201,2.115-0.402 c0.418-0.121,0.781-0.418,1.198-0.537c0.146-0.041,0.439,0.171,0.549,0.342c0.082,0.129,0.05,0.476-0.057,0.555 c-0.589,0.432-1.205,0.831-1.837,1.203c-0.342,0.201-0.719,0.365-1.098,0.474c-0.491,0.14-1.036,0.372-1.499,0.276 C187.14,77.369,186.129,75.976,186.198,73.24z M189.261,69.943c0.279,1.002,0.613,1.434,1.467,1.314 c0.878-0.119,2.124-1.29,1.922-2.111c-0.146-0.604-0.855-1.068-1.314-1.596C190.645,68.347,189.951,69.146,189.261,69.943z"></path> <path fill="#454344" d="M239.104,74.003c-0.021,0.201-0.101,0.418-0.054,0.604c0.113,0.469,0.165,1.188,0.461,1.322 c0.485,0.221,1.21,0.268,1.481-0.571c0.046-0.144,0.459-0.168,0.704-0.247c0.064,0.285,0.255,0.615,0.173,0.846 c-0.695,1.926-4.123,2.521-5.426,0.943c-0.185-0.223-0.279-0.614-0.245-0.91c0.16-1.563,0.348-3.125,0.589-4.678 c0.164-1.051,0.95-2.123-0.285-3.059c-0.078-0.059,0.062-0.607,0.242-0.766c0.687-0.605,1.216-1.244,1.587-2.135 c0.215-0.518,1.135-0.975,1.773-1.025c0.957-0.075,0.864,0.711,0.825,1.477c-0.036,0.731-0.083,1.768,1.29,1.404 c0.141-0.038,0.418,0.446,0.631,0.689c-0.225,0.17-0.482,0.516-0.672,0.482c-1.636-0.279-2.086,0.512-2.241,2.008 c-0.124,1.205-0.676,2.367-1.037,3.55C238.969,73.96,239.036,73.982,239.104,74.003z"></path> <path fill="#454344" d="M150.74,76.871c0.235-0.19,0.406-0.364,0.607-0.49c1.651-1.025,1.64-1.897,0.009-3.025 c-1.072-0.744-2.086-1.473-2.396-2.953c-0.255-1.197,0.203-2.049,0.942-2.656c1.66-1.365,4.746-1.379,6.458-0.175 c0.854,0.603-0.106,0.94-0.282,1.368c-0.22,0.543-0.646,0.764-1.132,0.262c-0.356-0.367-0.596-0.854-0.978-1.181 c-0.29-0.249-0.737-0.495-1.088-0.461c-0.976,0.097-1.622,1.798-0.944,2.501c0.763,0.791,1.681,1.432,2.449,2.219 c1.279,1.311,1.129,3.826-0.851,4.876c-1.809,0.958-3.572,0.975-5.366,0.197c-0.404-0.175-0.796-0.729-0.887-1.171 c-0.072-0.365,0.31-0.822,0.491-1.238c0.495,0.246,1.017,0.451,1.476,0.752C149.744,76.013,150.179,76.421,150.74,76.871z"></path> <path fill="#454344" d="M198.809,78.074c-0.92-0.281-1.896-0.455-2.731-0.896c-0.327-0.173-0.422-0.94-0.454-1.448 c-0.017-0.24,0.343-0.69,0.571-0.72c0.39-0.048,0.876,0.067,1.202,0.288c0.398,0.27,0.71,0.694,0.997,1.095 c0.877,1.215,1.352,0.004,1.94-0.326c0.733-0.41,0.933-1.053,0.339-1.703c-0.637-0.697-1.291-1.438-2.083-1.916 c-1.402-0.844-1.432-2.096-1.214-3.404c0.178-1.072,1.178-1.299,2.018-1.808c1.794-1.085,3.34-0.46,4.961,0.177 c0.25,0.098,0.637,0.492,0.602,0.564c-0.251,0.484-0.558,0.963-0.943,1.348c-0.105,0.104-0.574-0.063-0.811-0.209 c-0.293-0.182-0.58-0.432-0.759-0.721c-0.419-0.684-0.908-1.27-1.704-0.637c-0.91,0.723-0.919,1.842-0.078,2.705 c0.547,0.56,1.204,1.01,1.8,1.521c1.908,1.635,1.417,4.291-0.949,5.201c-0.526,0.203-1.02,0.506-1.555,0.666 c-0.337,0.1-0.728,0.018-1.093,0.018C198.847,77.937,198.828,78.005,198.809,78.074z"></path> <path fill="#454344" d="M266.068,68.082c0.781-1.072,1.418-2.09,2.21-2.966c0.364-0.401,1.033-0.526,1.562-0.776 c0.197,0.424,0.563,0.85,0.557,1.271c-0.01,0.889,0.353,1.334,1.157,1.617c0.306,0.105,0.51,0.496,0.761,0.756 c-0.328,0.145-0.654,0.41-0.984,0.414c-1.409,0.021-1.68,0.287-1.851,1.642c-0.104,0.821-0.454,1.608-0.612,2.426 c-0.17,0.87-0.289,1.755-0.324,2.638c-0.014,0.271,0.279,0.739,0.508,0.794c0.383,0.091,0.836-0.042,1.245-0.147 c0.314-0.081,0.604-0.264,0.905-0.402c-0.045,0.494,0.029,1.361-0.156,1.422c-1.075,0.346-1.889,1.391-3.237,1.07 c-1.323-0.314-2.186-0.994-2.136-2.326c0.041-1.107,0.379-2.201,0.532-3.309C266.398,70.789,267.112,69.335,266.068,68.082z"></path> <path fill="#454344" d="M140.985,78.08c-0.957-0.243-1.801-0.377-2.581-0.682c-0.569-0.223-1.075-0.668-0.663-1.43 c0.195-0.366,0.412-0.723,0.619-1.082c0.266,0.258,0.504,0.557,0.804,0.77c0.622,0.439,1.25,1.086,1.931,1.163 c0.477,0.056,1.238-0.593,1.51-1.114c0.215-0.414,0.054-1.236-0.25-1.658c-0.448-0.625-1.154-1.072-1.776-1.564 c-1.8-1.426-2.019-2.836-0.691-4.605c0.467-0.621,3.762-1.438,4.633-1.131c0.498,0.176,1.036,0.317,1.452,0.617 c0.292,0.211,0.537,0.648,0.571,1.008c0.03,0.34-0.244,0.707-0.382,1.063c-0.345-0.169-0.716-0.3-1.022-0.519 c-0.289-0.207-0.571-0.473-0.754-0.774c-0.394-0.64-0.929-0.839-1.524-0.435c-0.991,0.672-1.362,1.729-0.835,2.273 c0.493,0.512,1.104,0.908,1.643,1.379c1.034,0.902,2.064,1.729,1.956,3.396c-0.073,1.105-0.763,1.744-1.423,2.166 C143.255,77.527,142.046,77.72,140.985,78.08z"></path> <path fill="#454344" d="M229.302,74.205c0.373-0.309,0.869-0.548,1.098-0.941c0.692-1.203,1.312-2.449,1.887-3.713 c0.146-0.324,0.003-0.771,0.029-1.16c0.021-0.328,0.018-0.891,0.158-0.936c0.509-0.162,1.091-0.252,1.604-0.153 c0.193,0.037,0.471,0.731,0.371,1.006c-0.371,1.04-0.782,2.093-1.359,3.028c-1.036,1.678-2.18,3.291-3.33,4.896 c-0.402,0.563-0.888,1.123-1.457,1.502c-0.715,0.474-1.458,0.006-1.596-0.998c-0.301-2.209-0.503-4.433-0.81-6.641 c-0.083-0.59-0.47-1.133-0.592-1.723c-0.066-0.329,0.012-0.926,0.221-1.037c1.49-0.805,2.969,0.023,3.092,1.666 c0.122,1.653,0.236,3.309,0.356,4.963C229.083,74.044,229.192,74.125,229.302,74.205z"></path> <path fill="#454344" d="M113.87,67.458c-1.125,0.714-2.209,1.278-2.539,2.577c-0.327,1.283-0.69,2.574-0.827,3.885 c-0.066,0.637,0.24,1.824,0.565,1.894c0.881,0.188,1.863-0.073,2.801-0.19c0.129-0.015,0.217-0.273,0.354-0.313 c0.277-0.082,0.574-0.091,0.863-0.129c-0.004,0.297,0.089,0.646-0.033,0.885c-0.524,1.037-3.435,2.115-4.88,1.762 c-1.285-0.313-2.469-2.006-2.589-3.535c-0.219-2.804,1.018-4.926,3.045-6.685c1.266-1.097,4.979-1.112,6.183-0.028 c0.159,0.145,0.269,0.6,0.169,0.727c-0.34,0.428-0.73,0.939-1.208,1.096c-0.319,0.105-0.91-0.243-1.214-0.553 C114.246,68.531,114.133,68.017,113.87,67.458z"></path> <path fill="#454344" d="M123.426,67.513c-2.469,1.609-2.937,4.086-3.228,6.563c-0.068,0.582,0.5,1.593,1.023,1.807 c0.754,0.309,1.806,0.523,2.521-0.453c0.151-0.207,0.596-0.201,0.905-0.293c0.041,0.297,0.155,0.605,0.105,0.885 c-0.047,0.258-0.22,0.543-0.421,0.717c-1.5,1.277-3.783,1.408-5.473,0.348c-1.008-0.637-1.785-2.738-1.382-4.037 c0.421-1.354,0.903-2.698,1.481-3.992c0.201-0.449,0.769-0.732,1.166-1.094c1.476-1.334,4.321-1.697,5.962-0.684 c0.292,0.18,0.607,0.784,0.51,1.031c-0.18,0.449-0.616,0.85-1.046,1.109c-0.129,0.078-0.614-0.35-0.881-0.603 C124.221,68.394,123.813,67.923,123.426,67.513z"></path> <path fill="#454344" d="M174.43,68.191c0.973-0.467,1.835-0.91,2.724-1.296c0.563-0.245,1.098-0.452,1.539,0.341 c0.453,0.818,0.355,1.615-0.247,2.074c-0.331,0.254-1.412,0.094-1.681-0.252c-0.632-0.807-1.071-0.52-1.593-0.041 c-1.491,1.373-1.773,3.271-2.213,5.107c-0.241,1.005-0.47,2.043-0.928,2.949c-0.183,0.359-1.104,0.672-1.473,0.512 c-0.371-0.162-0.719-0.975-0.653-1.441c0.297-2.064,0.757-4.107,1.132-6.162c0.076-0.434,0.123-0.902,0.041-1.328 c-0.131-0.678-0.304-1.416,0.55-1.605c0.818-0.184,1.861-0.785,2.401,0.537C174.103,67.765,174.246,67.917,174.43,68.191z"></path> <path fill="#454344" d="M179.487,76.419c0.474-1.922,0.952-3.748,1.364-5.59c0.19-0.85,0.342-1.727,0.342-2.592 c0-0.754,0.188-1.178,0.974-1.218c0.163-0.009,0.327-0.011,0.487-0.04c1.525-0.273,1.926,0.084,1.607,1.631 c-0.403,1.963-0.95,3.898-1.349,5.861c-0.106,0.531-0.019,1.161,0.165,1.682c0.377,1.074,0.047,1.559-1.09,1.455 c-0.398-0.037-0.811-0.008-1.213,0.029C179.794,77.732,179.451,77.224,179.487,76.419z"></path> <path fill="#454344" d="M284.747,76.465c0.714-0.681,0.51-2.324,2.101-2.024c0.301,0.057,0.732,0.746,0.68,1.078 c-0.115,0.732-0.317,1.727-0.833,2.033c-0.407,0.244-1.331-0.371-2.026-0.605C284.694,76.785,284.721,76.625,284.747,76.465z"></path> <path fill="#454344" d="M243.544,76.652c0.295-1.053,0.101-2.244,1.394-2.17c0.471,0.027,1.207,0.635,1.298,1.084 c0.172,0.859-1.104,2.297-1.729,2.085C244.082,77.507,243.803,76.938,243.544,76.652z"></path> <path fill="#454344" d="M184.662,62.607c0.116,0.167,0.54,0.518,0.604,0.924c0.117,0.741-0.987,1.881-1.688,1.861 c-0.801-0.023-1.154-0.521-1.166-1.271C182.398,63.201,183.16,62.578,184.662,62.607z"></path> </g> </g> <path fill="#F78F2B" d="M35.362,0.079c-5.635,0-11.275-0.125-16.902,0.069c-1.967,0.067-3.914,0.895-5.855,1.423 C10.705,2.087,9.411,3.607,7.78,4.55C5.817,5.686,4.607,7.509,3.454,9.243c-1.389,2.08-2.335,4.432-2.861,7.002 c-0.673,3.296-0.557,6.573-0.572,9.865c-0.036,8.038-0.015,16.076-0.01,24.113c0,0.416,0.019,0.837,0.077,1.248 c0.184,1.273,0.878,1.877,2.15,1.885c6.783,0.033,13.565,0.055,20.35,0.106c0.713,0.005,0.962-0.186,0.959-0.938 c-0.026-9.15-0.021-18.302-0.025-27.453c-0.001-1.901,0.33-2.251,2.234-2.25c9.183,0.006,18.367,0.018,27.549,0.026 c0.383,0,0.827,0.092,1.13-0.07c0.319-0.172,0.711-0.597,0.711-0.911c0.004-6.366-0.042-12.732-0.08-19.098 c0-0.104,0-0.209-0.005-0.313c-0.075-1.894-0.794-2.434-2.375-2.432c-4.348,0.005-8.698-0.014-13.046-0.021 c-1.426-0.003-2.852-0.001-4.277-0.001C35.362,0.027,35.362,0.054,35.362,0.079z"></path> </g> </svg> 