<svg xmlns="http://www.w3.org/2000/svg" viewBox="0 0 80 78.08">
  <path fill="#EE2B34" d="M78,42.718c0,5.635,0.125,11.273-0.069,16.9c-0.068,1.967-0.896,3.914-1.423,5.857 c-0.516,1.897-2.036,3.191-2.979,4.822c-1.135,1.965-2.96,3.172-4.692,4.328c-2.08,1.387-4.433,2.334-7.002,2.859 c-3.297,0.674-6.574,0.557-9.865,0.572c-8.038,0.037-16.074,0.014-24.113,0.01c-0.417,0-0.836-0.018-1.248-0.078 c-1.273-0.184-1.876-0.877-1.885-2.15c-0.031-6.781-0.055-13.564-0.104-20.346c-0.006-0.716,0.186-0.965,0.938-0.962 c9.151,0.026,18.302,0.021,27.453,0.025c1.9,0.001,2.25-0.33,2.247-2.234c-0.006-9.183-0.018-18.366-0.023-27.55 c-0.003-0.381-0.094-0.826,0.068-1.127c0.173-0.318,0.596-0.711,0.91-0.711c6.366-0.004,12.733,0.042,19.1,0.08 c0.104,0.001,0.207,0.001,0.313,0.005c1.894,0.076,2.434,0.794,2.433,2.376c-0.006,4.348,0.013,8.696,0.021,13.044 c0.003,1.425,0,2.852,0,4.279C78.052,42.718,78.026,42.718,78,42.718z"/>
  <path fill="#EE2B34" d="M47.052,38.605c0,2.189-0.031,4.379,0.018,6.567c0.018,0.751-0.198,1.108-0.962,1.108 c-4.412,0-8.825,0.004-13.24,0.014c-0.725,0.002-0.93-0.356-0.925-1.049c0.021-4.414,0.029-8.827-0.008-13.24 c-0.008-0.889,0.38-1.179,1.172-1.177c4.241,0.006,8.48,0.015,12.722,0.011c0.896-0.001,1.291,0.314,1.256,1.302 c-0.072,2.152-0.021,4.308-0.021,6.463C47.06,38.605,47.056,38.605,47.052,38.605z"/>
  <path fill="#F78F2B" d="M35.362,0.079c-5.635,0-11.275-0.125-16.902,0.069c-1.967,0.067-3.914,0.895-5.855,1.423 C10.705,2.087,9.411,3.607,7.78,4.55C5.817,5.686,4.607,7.509,3.454,9.243c-1.389,2.08-2.335,4.432-2.861,7.002 c-0.673,3.296-0.557,6.573-0.572,9.865c-0.036,8.038-0.015,16.076-0.01,24.113c0,0.416,0.019,0.837,0.077,1.248 c0.184,1.273,0.878,1.877,2.15,1.885c6.783,0.033,13.565,0.055,20.35,0.106c0.713,0.005,0.962-0.186,0.959-0.938 c-0.026-9.15-0.021-18.302-0.025-27.453c-0.001-1.901,0.33-2.251,2.234-2.25c9.183,0.006,18.367,0.018,27.549,0.026 c0.383,0,0.827,0.092,1.13-0.07c0.319-0.172,0.711-0.597,0.711-0.911c0.004-6.366-0.042-12.732-0.08-19.098 c0-0.104,0-0.209-0.005-0.313c-0.075-1.894-0.794-2.434-2.375-2.432c-4.348,0.005-8.698-0.014-13.046-0.021 c-1.426-0.003-2.852-0.001-4.277-0.001C35.362,0.027,35.362,0.054,35.362,0.079z"/>
</svg>
